<svg width="140" height="140" viewBox="0 0 140 140" fill="none" xmlns="http://www.w3.org/2000/svg">
<path d="M0 0H140V140H6C2.6863 140 0 137.314 0 134V0Z" fill="#E99210"/>
<path fill-rule="evenodd" clip-rule="evenodd" d="M134.099 81.4084V87.4929H123.595C122.461 87.4929 121.536 87.121 120.819 86.3774C120.102 85.6337 119.744 84.6872 119.744 83.5379V68.4281H112.391V62.3436H119.744V52H126.046V62.3436H135V68.4281H126.046V79.8873C126.046 80.9013 126.496 81.4084 127.397 81.4084H134.099ZM21.4046 88.2026C24.6726 88.2026 27.207 87.459 29.0077 85.9716C30.8084 84.4843 31.7088 82.49 31.7088 79.9885V79.6843C31.7088 77.4195 30.9085 75.6533 29.3078 74.3857C27.7072 73.1181 25.6397 72.3491 23.1053 72.0787C20.9044 71.8421 19.3871 71.5463 18.5535 71.1914C17.7198 70.8365 17.303 70.2534 17.303 69.4421C17.303 68.8675 17.5697 68.3858 18.1033 67.997C18.6368 67.6083 19.4372 67.4139 20.5043 67.4139C21.6714 67.4139 22.6218 67.6759 23.3554 68.1998C24.089 68.7238 24.6059 69.4421 24.906 70.3548L30.6084 68.0224C30.3416 67.3125 29.9581 66.5773 29.4579 65.8168C28.9577 65.0562 28.3074 64.3632 27.5071 63.7379C26.7068 63.1125 25.7314 62.6055 24.5809 62.2168C23.4304 61.828 22.0716 61.6337 20.5043 61.6337C19.3038 61.6337 18.1366 61.8027 17.0028 62.1407C15.869 62.4787 14.8686 62.9773 14.0016 63.6365C13.1346 64.2956 12.4343 65.0984 11.9008 66.0449C11.3672 66.9914 11.1004 68.09 11.1004 69.3407V69.6449C11.1004 72.0449 11.9258 73.8618 13.5764 75.0956C15.2271 76.3294 17.453 77.0646 20.2542 77.3012C21.2879 77.4026 22.1466 77.5378 22.8302 77.7069C23.5138 77.8759 24.0557 78.0871 24.4559 78.3407C24.856 78.5942 25.1311 78.8646 25.2812 79.1519C25.4313 79.4393 25.5063 79.7519 25.5063 80.09C25.5063 80.6646 25.2145 81.197 24.6309 81.6871C24.0474 82.1773 22.9719 82.4223 21.4046 82.4223C19.6372 82.4223 18.3284 82.0167 17.478 81.2054C16.6277 80.3942 16.0691 79.4477 15.8024 78.366L10 80.2928C10.1667 81.1716 10.4919 82.0759 10.9754 83.0054C11.4589 83.935 12.1509 84.7801 13.0512 85.5406C13.9516 86.3012 15.0854 86.935 16.4526 87.4421C17.8198 87.9491 19.4705 88.2026 21.4046 88.2026ZM47.028 88.2026C50.5627 88.2026 53.3889 87.2899 55.5064 85.4646C57.6239 83.6392 58.9661 81.2393 59.533 78.2646L53.3305 76.6928C53.0304 78.3491 52.3718 79.6674 51.3547 80.6477C50.3376 81.628 48.862 82.1181 46.9279 82.1181C46.0276 82.1181 45.1772 81.9745 44.3769 81.6871C43.5766 81.3998 42.8763 80.9688 42.276 80.3942C41.6758 79.8195 41.2006 79.1012 40.8505 78.2393C40.5003 77.3773 40.3252 76.3886 40.3252 75.2731V74.9688C40.3252 73.8534 40.5003 72.8477 40.8505 71.952C41.2006 71.0562 41.6758 70.2956 42.276 69.6703C42.8763 69.0449 43.5766 68.5632 44.3769 68.2252C45.1772 67.8872 46.0276 67.7182 46.9279 67.7182C48.862 67.7182 50.3627 68.259 51.4297 69.3407C52.4968 70.4224 53.1304 71.7069 53.3305 73.1942L59.533 71.5717C58.9661 68.597 57.6073 66.197 55.4564 64.3717C53.3055 62.5463 50.496 61.6337 47.028 61.6337C45.2272 61.6337 43.5349 61.9379 41.9509 62.5463C40.3669 63.1548 38.983 64.0337 37.7992 65.183C36.6154 66.3322 35.69 67.7182 35.0231 69.3407C34.3562 70.9632 34.0227 72.7886 34.0227 74.8167V75.4252C34.0227 77.4533 34.3562 79.2618 35.0231 80.8505C35.69 82.4392 36.6071 83.7745 37.7742 84.8561C38.9414 85.9378 40.3169 86.766 41.9009 87.3406C43.4849 87.9153 45.1939 88.2026 47.028 88.2026ZM77.5269 87.3406C75.9762 87.9153 74.3506 88.2026 72.6499 88.2026C70.9492 88.2026 69.3235 87.9153 67.7729 87.3406C66.2223 86.766 64.8467 85.9294 63.6462 84.8308C62.4457 83.7322 61.4954 82.3801 60.7951 80.7745C60.0948 79.1688 59.7447 77.3181 59.7447 75.2224V74.6139C59.7447 72.5519 60.0948 70.7181 60.7951 69.1125C61.4954 67.5069 62.4457 66.1463 63.6462 65.0308C64.8467 63.9153 66.2223 63.0703 67.7729 62.4956C69.3235 61.921 70.9492 61.6337 72.6499 61.6337C74.3506 61.6337 75.9762 61.921 77.5269 62.4956C79.0775 63.0703 80.453 63.9153 81.6535 65.0308C82.854 66.1463 83.8044 67.5069 84.5047 69.1125C85.205 70.7181 85.5551 72.5519 85.5551 74.6139V75.2224C85.5551 77.3181 85.205 79.1688 84.5047 80.7745C83.8044 82.3801 82.854 83.7322 81.6535 84.8308C80.453 85.9294 79.0775 86.766 77.5269 87.3406ZM72.6512 82.1183C71.7509 82.1183 70.9005 81.9662 70.1002 81.6619C69.2999 81.3577 68.5996 80.9183 67.9994 80.3436C67.3991 79.769 66.9239 79.0676 66.5738 78.2394C66.2236 77.4113 66.0486 76.4732 66.0486 75.4253V74.4113C66.0486 73.3634 66.2236 72.4253 66.5738 71.5972C66.9239 70.769 67.3991 70.0676 67.9994 69.493C68.5996 68.9183 69.2999 68.4789 70.1002 68.1747C70.9005 67.8704 71.7509 67.7183 72.6512 67.7183C73.5516 67.7183 74.402 67.8704 75.2023 68.1747C76.0026 68.4789 76.7029 68.9183 77.3031 69.493C77.9034 70.0676 78.3786 70.769 78.7287 71.5972C79.0788 72.4253 79.2539 73.3634 79.2539 74.4113V75.4253C79.2539 76.4732 79.0788 77.4113 78.7287 78.2394C78.3786 79.0676 77.9034 79.769 77.3031 80.3436C76.7029 80.9183 76.0026 81.3577 75.2023 81.6619C74.402 81.9662 73.5516 82.1183 72.6512 82.1183ZM103.45 87.3406C101.899 87.9153 100.274 88.2026 98.5731 88.2026C96.8724 88.2026 95.2467 87.9153 93.6961 87.3406C92.1455 86.766 90.7699 85.9294 89.5694 84.8308C88.3689 83.7322 87.4186 82.3801 86.7183 80.7745C86.018 79.1688 85.6679 77.3181 85.6679 75.2224V74.6139C85.6679 72.5519 86.018 70.7181 86.7183 69.1125C87.4186 67.5069 88.3689 66.1463 89.5694 65.0308C90.7699 63.9153 92.1455 63.0703 93.6961 62.4956C95.2467 61.921 96.8724 61.6337 98.5731 61.6337C100.274 61.6337 101.899 61.921 103.45 62.4956C105.001 63.0703 106.376 63.9153 107.577 65.0308C108.777 66.1463 109.728 67.5069 110.428 69.1125C111.128 70.7181 111.478 72.5519 111.478 74.6139V75.2224C111.478 77.3181 111.128 79.1688 110.428 80.7745C109.728 82.3801 108.777 83.7322 107.577 84.8308C106.376 85.9294 105.001 86.766 103.45 87.3406ZM98.5744 82.1183C97.6741 82.1183 96.8237 81.9662 96.0234 81.6619C95.2231 81.3577 94.5228 80.9183 93.9226 80.3436C93.3223 79.769 92.8471 79.0676 92.497 78.2394C92.1468 77.4113 91.9718 76.4732 91.9718 75.4253V74.4113C91.9718 73.3634 92.1468 72.4253 92.497 71.5972C92.8471 70.769 93.3223 70.0676 93.9226 69.493C94.5228 68.9183 95.2231 68.4789 96.0234 68.1747C96.8237 67.8704 97.6741 67.7183 98.5744 67.7183C99.4748 67.7183 100.325 67.8704 101.125 68.1747C101.926 68.4789 102.626 68.9183 103.226 69.493C103.827 70.0676 104.302 70.769 104.652 71.5972C105.002 72.4253 105.177 73.3634 105.177 74.4113V75.4253C105.177 76.4732 105.002 77.4113 104.652 78.2394C104.302 79.0676 103.827 79.769 103.226 80.3436C102.626 80.9183 101.926 81.3577 101.125 81.6619C100.325 81.9662 99.4748 82.1183 98.5744 82.1183Z" fill="white"/>
</svg>
